# xmcd
#
# Track frame offsets: 
#        183
#        13885
#        28268
#        42245
#        56240
#        69275
#        83070
#        93805
#        106785
#        120295
#        133443
#        147088
#        160190
#        172313
#        183290
#        196343
#        208683
#        221603
#        233543
#        245718
#
# Disc length: 3448 seconds
#
# Revision: 0
# Processed by: cddbd v1.5.2PL0 Copyright (c) Steve Scherf et al.
# Submitted via: ExactAudioCopy v0.99pb5
#
DISCID=1c0d7614
DTITLE=Bukka White - The Complete Sessions 1930-1940
DYEAR=1990
DGENRE=Blues
TTITLE0=The New Frisco Train
TTITLE1=The Panama limited
TTITLE2=I Am In The heavenly Way
TTITLE3=Promise True And Grand
TTITLE4=Pinebluff Arkansas
TTITLE5=Shake Em On down
TTITLE6=Sic Em Dogs On
TTITLE7=Po Boy
TTITLE8=Black Train
TTITLE9=Strange Place Blues
TTITLE10=Where Can I Change My Clothes
TTITLE11=Sleepy Man blues
TTITLE12=Parchman Farm Blues
TTITLE13=Good Gin Blues
TTITLE14=High Fever blues
TTITLE15=District Attorney blues
TTITLE16=Fixin To Die Blues
TTITLE17=Aberdeen Mississippi Blues
TTITLE18=Bukka's Jitterbug Swing
TTITLE19=Special Stream Line
EXTD=
EXTT0=
EXTT1=
EXTT2=
EXTT3=
EXTT4=
EXTT5=
EXTT6=
EXTT7=
EXTT8=
EXTT9=
EXTT10=
EXTT11=
EXTT12=
EXTT13=
EXTT14=
EXTT15=
EXTT16=
EXTT17=
EXTT18=
EXTT19=
PLAYORDER=
